# xmcd
#
# Track frame offsets:
#	150
#	11382
#	32902
#	45046
#	61436
#	61856
#	88041
#	116227
#	130997
#	148321
#	172836
#	195140
#	221217
#	238744
#	253224
#	266378
#	282561
#	298183
#	312619
#	333123
#	340656
#
# Disc length: 4795 seconds
#
# Revision: 0
# Processed by: cddbd v1.4PL0 Copyright (c) Steve Scherf et al.
# Submitted via: audiograbber 1.81.03
#
DISCID=4012b915
DTITLE=Various Artist - Ice Mix: From Country Folk To Country Crunch
DYEAR=1900
DGENRE=Country
TTITLE0=Roger Miller/King of the Road
TTITLE1=Merle Haggard and Willie Nelson/Poncho and Lefty
TTITLE2=Intro
TTITLE3=Pohcho and Lefty
TTITLE4=pause
TTITLE5=Jerry Jeff Walker/Desperados Waiting for the Train
TTITLE6=Peter Rowan/Land of the Navijo
TTITLE7=Robert Earl Keen/Feelin' Good Again
TTITLE8=Jayhawks/Five Cups of Coffee
TTITLE9=Wichita
TTITLE10=Bottle Rockets/Sunday Sports
TTITLE11=Cracker/Another Song About the Rain
TTITLE12=Steve Earle/This Highway's Mine
TTITLE13=Bruce Spjringsteen/State Trooper
TTITLE14=Open All Night
TTITLE15=John Hiatt/Paper Thin
TTITLE16=Old 97's/Jagged
TTITLE17=Bottle Rockets/Perfect Faraway
TTITLE18=Cracker/Low
TTITLE19=Kinky Friedman/Old Ben Lucus
TTITLE20=Steve Earle/Transendental Blues
EXTD=
EXTT0=
EXTT1=
EXTT2=
EXTT3=
EXTT4=
EXTT5=
EXTT6=
EXTT7=
EXTT8=
EXTT9=
EXTT10=
EXTT11=
EXTT12=
EXTT13=
EXTT14=
EXTT15=
EXTT16=
EXTT17=
EXTT18=
EXTT19=
EXTT20=
PLAYORDER=
